<?xml version="1.0" standalone="no"?>
<!DOCTYPE svg PUBLIC "-//W3C//DTD SVG 20010904//EN"
 "http://www.w3.org/TR/2001/REC-SVG-20010904/DTD/svg10.dtd">
<svg version="1.0" xmlns="http://www.w3.org/2000/svg"
 width="360.000000pt" height="360.000000pt" viewBox="0 0 360.000000 360.000000"
 preserveAspectRatio="xMidYMid meet">
<metadata>
Created by potrace 1.14, written by Peter Selinger 2001-2017
</metadata>
<g transform="translate(0.000000,360.000000) scale(0.100000,-0.100000)"
fill="#000000" stroke="none">
<path d="M2290 3591 c0 -5 6 -16 13 -23 7 -7 12 -19 12 -27 0 -18 -21 -26 -30
-12 -3 6 -15 11 -26 11 -11 0 -18 -4 -14 -9 10 -18 -13 -21 -30 -4 -14 14 -18
14 -26 2 -5 -8 -9 -9 -9 -3 0 7 -7 14 -15 18 -13 4 -14 2 -5 -14 8 -14 8 -20
0 -20 -6 0 -3 -12 8 -27 10 -16 25 -41 34 -58 18 -37 41 -78 48 -85 10 -10 60
-115 60 -126 0 -14 -51 -25 -65 -14 -5 4 -28 8 -50 7 -53 0 -69 5 -77 25 -6
15 -12 16 -34 7 -17 -6 -38 -6 -53 -1 -26 8 -40 8 -133 -2 -26 -2 -50 0 -53 5
-4 5 0 9 7 9 8 0 9 3 3 8 -14 10 -14 122 -1 123 6 1 17 2 24 3 7 0 17 7 22 15
7 12 11 13 25 1 12 -10 18 -11 28 -1 9 10 8 11 -8 5 -18 -7 -19 -6 -6 9 12 15
12 17 -3 11 -12 -5 -15 -2 -10 10 4 9 9 14 12 12 9 -9 31 28 32 52 0 13 -6 22
-15 22 -22 0 -65 -22 -59 -31 2 -4 -3 -7 -13 -5 -10 2 -31 -10 -48 -27 -16
-17 -21 -23 -9 -14 11 9 24 14 27 10 4 -3 7 0 7 7 0 7 3 10 7 7 10 -11 -41
-53 -65 -53 -12 0 -22 3 -22 7 0 10 -26 5 -42 -9 -34 -27 -103 -43 -163 -37
-33 3 -75 1 -93 -4 -20 -6 -30 -6 -27 0 8 12 4 12 -41 -7 -43 -18 -68 -25
-106 -29 -15 -2 -55 -12 -90 -23 -35 -12 -81 -23 -103 -26 -86 -11 -130 -19
-140 -26 -5 -4 -35 -10 -65 -14 -65 -8 -157 -34 -165 -46 -3 -4 -16 -11 -31
-14 -45 -12 -78 -51 -83 -98 -1 -5 -7 -8 -14 -8 -8 0 -22 -9 -31 -19 -10 -11
-25 -17 -34 -14 -15 4 -15 3 -2 -6 12 -9 13 -12 1 -20 -11 -7 -11 -9 0 -14 8
-3 4 -6 -9 -6 -13 -1 -20 -5 -17 -11 3 -5 -5 -15 -19 -22 -14 -6 -26 -17 -26
-24 0 -6 -7 -15 -16 -18 -9 -4 -14 -9 -11 -12 3 -4 -7 -20 -23 -38 -17 -17
-30 -37 -30 -43 0 -7 -4 -13 -9 -13 -14 0 -20 -37 -7 -51 8 -9 7 -11 -4 -7
-12 4 -15 -6 -16 -56 -1 -77 -6 -99 -22 -109 -7 -5 -10 -13 -6 -18 3 -6 -1 -9
-9 -7 -9 2 -15 1 -15 -2 1 -3 -4 -16 -11 -29 -7 -13 -8 -21 -3 -17 6 3 8 -2 5
-13 -3 -13 -12 -18 -29 -16 -28 3 -62 -29 -44 -40 9 -6 9 -9 1 -15 -7 -4 -13
-18 -13 -31 -1 -13 -6 -30 -12 -38 -8 -10 -8 -15 0 -18 12 -4 10 -47 -5 -85
-6 -16 -8 -28 -5 -28 4 0 1 -7 -6 -14 -6 -8 -13 -46 -15 -85 -2 -39 -9 -80
-15 -91 -10 -18 -8 -22 8 -27 11 -3 34 -22 52 -44 17 -21 37 -39 45 -39 8 0
17 -12 20 -27 4 -16 11 -35 16 -43 5 -8 12 -23 15 -32 4 -10 9 -18 13 -18 4 0
5 -15 3 -33 -2 -21 2 -38 12 -46 8 -7 13 -18 10 -26 -3 -7 2 -27 10 -44 18
-34 20 -45 8 -37 -5 3 -9 -1 -9 -9 0 -8 3 -13 5 -10 11 11 30 -30 22 -46 -11
-19 1 -70 15 -66 13 3 8 91 -5 95 -16 6 -11 22 6 22 10 0 14 5 10 16 -3 8 -2
12 4 9 6 -3 10 0 10 7 0 7 6 25 14 40 8 15 22 53 31 85 9 32 25 75 35 96 l19
39 -49 20 c-47 19 -66 40 -54 59 6 10 45 5 86 -12 40 -16 54 -6 56 37 2 43 20
85 55 128 36 45 45 28 39 -78 -5 -108 9 -167 34 -141 16 15 19 29 5 20 -5 -3
-13 -1 -16 5 -4 6 -1 9 7 8 7 -2 13 4 13 12 0 8 -6 14 -13 12 -19 -3 -14 6 9
19 17 9 20 8 13 -3 -4 -7 7 -1 25 15 45 37 62 36 54 -5 -3 -18 -16 -55 -29
-83 -21 -46 -21 -48 -2 -25 11 14 31 46 44 72 13 25 29 50 35 54 18 11 89 8
101 -4 6 -6 17 -8 24 -5 20 7 19 -93 -1 -141 l-15 -36 -94 6 c-99 7 -113 2
-101 -36 5 -17 15 -20 60 -20 30 0 56 4 59 9 10 15 60 20 126 11 36 -5 85 -12
110 -15 l45 -5 -50 14 c-27 7 -67 17 -88 20 -20 4 -37 10 -37 13 0 15 43 72
51 67 5 -3 9 1 9 8 0 8 3 9 8 3 4 -5 16 -11 27 -12 20 -1 20 -1 1 13 -30 21 2
18 47 -5 24 -12 37 -15 37 -7 1 6 8 2 18 -9 9 -11 43 -28 74 -38 45 -14 58
-23 58 -38 0 -16 -8 -19 -57 -21 l-58 -2 70 -6 c54 -5 30 -7 -100 -9 -370 -6
-552 -16 -570 -31 -10 -8 -21 -14 -24 -12 -3 2 -21 -9 -38 -23 -29 -23 -32
-30 -27 -61 3 -23 2 -34 -4 -30 -6 4 -8 -3 -4 -16 l5 -22 8 22 c5 12 14 22 20
22 7 0 9 -8 3 -22 -4 -13 -9 -103 -11 -201 -4 -165 -3 -181 17 -222 26 -53 53
-69 40 -24 -5 16 -18 45 -29 63 -16 26 -19 39 -12 64 5 17 7 32 5 35 -2 2 6
12 18 23 22 19 22 19 8 0 -14 -18 -14 -19 7 -5 20 12 21 16 9 28 -11 11 -12
18 -3 32 9 14 9 21 -1 31 -11 11 -12 9 -6 -7 5 -15 2 -13 -14 7 -16 19 -22 39
-21 75 0 73 12 126 29 130 13 4 13 3 0 -6 -8 -6 -10 -11 -4 -11 6 0 19 9 28
19 10 11 24 17 32 14 8 -3 14 0 14 6 0 6 6 8 13 5 7 -2 22 4 32 16 17 19 29
20 184 19 109 0 159 -4 146 -10 -17 -7 -16 -8 9 -6 21 1 30 -3 32 -15 2 -16
-4 -17 -52 -12 -46 6 -59 3 -89 -17 -19 -13 -38 -32 -41 -42 -3 -10 -12 -16
-19 -13 -14 5 -14 3 -15 -66 0 -20 -6 -38 -13 -41 -9 -3 -12 12 -12 54 -1 64
-18 92 -71 115 -22 9 -42 10 -74 3 -57 -13 -70 -24 -65 -60 3 -23 0 -29 -15
-29 -46 0 -30 -94 23 -134 18 -13 46 -28 62 -34 29 -10 29 -11 8 -17 -27 -8
-29 -18 -8 -35 12 -10 18 -10 29 -1 12 10 13 8 9 -8 -6 -25 -16 -26 -47 -6
-27 18 -60 9 -90 -23 -25 -29 -10 -70 34 -93 31 -17 36 -17 57 -4 32 21 42 18
15 -5 l-24 -20 24 -29 c12 -17 29 -30 36 -30 6 -1 12 -8 12 -16 0 -13 24 -15
160 -15 100 0 160 -4 160 -10 0 -6 -57 -10 -151 -10 -97 0 -148 -4 -144 -10 3
-6 1 -10 -4 -10 -6 0 -11 -8 -11 -19 0 -20 -52 -47 -69 -36 -11 6 -15 -7 -11
-35 1 -8 10 -25 21 -38 10 -14 19 -32 19 -42 0 -9 12 -30 28 -46 27 -29 62
-92 62 -113 0 -6 4 -11 9 -11 5 0 17 -20 27 -45 9 -25 20 -45 24 -45 4 0 11
-12 15 -27 3 -16 18 -48 33 -73 15 -25 27 -49 27 -53 0 -4 5 -11 10 -15 6 -4
19 -26 29 -49 12 -27 27 -43 42 -47 25 -7 120 -9 351 -10 77 -1 139 -4 136 -8
-2 -5 58 -8 134 -8 153 0 666 -20 672 -26 3 -3 -1 -10 -8 -17 -11 -9 -14 -9
-18 1 -6 16 -32 15 -63 -3 -20 -11 -21 -15 -7 -16 37 -3 42 -5 40 -17 -2 -7 4
-12 12 -12 8 0 19 -9 25 -20 13 -24 87 -63 106 -56 8 3 14 2 14 -3 0 -5 18
-13 40 -19 34 -8 40 -8 41 7 0 10 2 11 6 4 10 -27 23 -11 20 27 -1 22 -7 40
-12 40 -6 0 -18 13 -27 28 l-17 28 32 2 c41 3 49 12 11 12 -20 1 -45 15 -83
49 l-54 49 27 73 c26 70 49 156 81 314 10 45 26 86 47 115 41 58 228 250 244
250 7 0 15 9 19 19 3 11 14 23 25 26 10 3 26 18 35 33 21 33 65 71 83 72 6 0
12 6 12 14 0 7 9 16 21 19 15 4 32 -6 63 -36 23 -23 56 -53 74 -67 38 -30 40
-54 7 -76 -14 -9 -22 -21 -18 -27 4 -6 -4 -8 -20 -5 -16 3 -28 0 -31 -8 -3 -8
-19 -14 -35 -14 -16 0 -31 -3 -33 -7 -1 -5 -24 -25 -50 -46 -26 -21 -64 -64
-84 -95 -21 -31 -42 -62 -48 -67 -6 -6 -16 -19 -22 -30 -7 -11 -19 -19 -27
-19 -9 1 -14 -5 -12 -16 2 -9 -10 -30 -25 -47 -38 -40 -65 -103 -45 -103 8 0
21 15 29 33 9 17 35 52 58 77 24 24 57 63 73 86 53 73 144 171 164 177 13 3
32 -6 53 -24 47 -40 48 -41 108 -71 30 -15 75 -29 99 -32 24 -2 47 -9 50 -14
7 -11 47 -21 111 -28 25 -2 61 -13 81 -24 20 -10 57 -22 83 -25 l46 -7 0 666
c0 515 -3 671 -12 687 -10 17 -10 23 0 26 9 4 12 155 12 709 l0 704 -655 0
c-396 0 -655 -4 -655 -9z m-463 -216 c-4 -8 -11 -15 -17 -15 -6 0 -6 7 2 20
14 22 24 19 15 -5z m-1227 -345 c0 -5 -2 -10 -4 -10 -3 0 -8 5 -11 10 -3 6 -1
10 4 10 6 0 11 -4 11 -10z m-320 -564 c0 -3 -4 -8 -10 -11 -5 -3 -10 -1 -10 4
0 6 5 11 10 11 6 0 10 -2 10 -4z m2725 -57 c11 -17 -1 -21 -15 -4 -8 9 -8 15
-2 15 6 0 14 -5 17 -11z m455 -14 c-7 -9 -15 -13 -19 -10 -3 3 1 10 9 15 21
14 24 12 10 -5z m-416 -60 c11 -11 26 -27 31 -36 6 -9 27 -42 48 -73 20 -31
49 -78 62 -104 14 -26 33 -58 42 -71 l17 -23 -207 5 c-114 2 -210 7 -212 9 -3
3 -1 28 5 57 12 63 50 103 92 98 16 -2 26 -2 24 1 -10 9 37 80 56 85 19 5 20
11 15 54 -3 26 -3 41 0 33 3 -8 15 -24 27 -35z m486 -32 c0 -7 -7 -10 -15 -7
-8 4 -15 10 -15 15 0 5 -7 9 -16 9 -8 0 -13 4 -10 9 8 12 56 -11 56 -26z
m-520 2 c0 -2 -7 -5 -15 -9 -9 -3 -15 0 -15 9 0 9 6 12 15 9 8 -4 15 -7 15 -9z
m550 -56 c0 -5 -4 -9 -10 -9 -5 0 -10 7 -10 16 0 8 5 12 10 9 6 -3 10 -10 10
-16z m15 -40 c10 -15 -1 -23 -20 -15 -9 3 -13 10 -10 16 8 13 22 13 30 -1z
m-2876 -108 c-7 -50 -15 -91 -19 -91 -16 0 -2 149 17 183 12 21 13 -8 2 -92z
m1742 72 c12 -31 7 -235 -6 -267 -7 -16 -6 -17 14 -6 13 6 29 27 37 46 11 26
20 34 42 35 15 1 41 3 57 5 34 4 85 -15 85 -31 0 -6 15 -16 33 -23 40 -14 60
-15 52 -3 -3 6 14 8 42 5 85 -7 113 -14 113 -29 0 -8 5 -15 10 -15 6 0 10 -4
10 -9 0 -11 -69 -36 -77 -28 -3 3 -20 -3 -38 -13 -19 -11 -44 -17 -56 -15 -12
3 -28 0 -36 -6 -11 -10 -88 -12 -218 -7 -16 1 -38 -2 -47 -6 -11 -5 -18 -4
-18 3 0 6 12 16 26 21 14 6 22 14 19 20 -12 19 -41 10 -58 -19 -9 -16 -28 -31
-41 -33 -26 -5 -218 2 -225 8 -2 2 2 10 9 19 7 8 14 38 16 67 3 29 9 57 14 62
6 6 10 18 10 27 0 9 9 19 20 22 11 3 18 11 15 19 -2 7 2 21 9 31 12 15 18 16
35 7 18 -9 21 -20 22 -83 0 -84 10 -69 29 45 8 47 20 85 31 97 11 11 19 22 19
25 0 16 21 56 30 56 6 0 15 -12 21 -27z m-1673 -5 c9 -9 4 -25 -21 -70 -17
-32 -34 -58 -38 -58 -10 0 8 96 23 119 15 24 20 25 36 9z m192 -128 c0 -5 -4
-10 -10 -10 -5 0 -10 5 -10 10 0 6 5 10 10 10 6 0 10 -4 10 -10z m787 -286
c-3 -3 -12 -4 -19 -1 -8 3 -5 6 6 6 11 1 17 -2 13 -5z m-477 -7 c-3 -3 -48 -7
-100 -10 -52 -4 -108 -9 -125 -12 -24 -4 -26 -3 -10 4 15 7 7 10 -37 10 -31 1
-59 -3 -63 -8 -3 -5 -18 -8 -33 -6 -15 2 -54 4 -87 5 -41 1 -54 4 -40 9 20 9
503 16 495 8z m-880 -47 c0 -5 -7 -7 -15 -4 -8 4 -12 10 -9 15 6 11 24 2 24
-11z m168 -4 c-10 -7 -18 -18 -18 -24 0 -5 -6 -12 -13 -15 -8 -3 -14 1 -14 9
0 8 2 12 5 10 2 -2 12 4 23 15 10 10 22 19 27 19 4 0 -1 -7 -10 -14z m178 -66
c27 -11 53 -37 54 -54 0 -5 -11 1 -25 14 -14 14 -38 30 -53 36 -33 15 -14 18
24 4z m204 -10 c-33 -26 -52 -25 -21 0 13 11 28 20 35 20 6 0 0 -9 -14 -20z
m210 -12 c18 -30 20 -51 20 -210 0 -169 -9 -236 -31 -222 -5 3 -4 14 2 25 11
21 14 352 4 370 -10 14 -24 69 -19 69 2 0 13 -15 24 -32z m1960 18 c24 -1 36
-6 38 -18 2 -11 9 -15 19 -11 13 5 15 2 10 -12 -6 -15 -5 -16 8 -5 14 12 15
10 9 -14 -6 -27 -6 -28 17 -15 28 15 29 15 40 -2 4 -8 3 -16 -2 -20 -6 -3 -1
-9 10 -12 12 -3 19 -1 16 3 -3 4 4 6 15 3 17 -5 18 -7 6 -17 -13 -10 -13 -13
0 -24 11 -11 14 -10 14 3 0 8 4 15 10 15 5 0 6 -7 3 -17 -4 -11 -3 -14 5 -9 8
5 12 0 12 -13 0 -12 4 -21 9 -21 5 0 7 10 4 23 -4 17 -3 19 6 7 5 -8 16 -15
23 -16 33 -3 38 -5 38 -15 0 -5 -5 -7 -12 -3 -6 4 -8 3 -5 -4 8 -11 25 -11 44
1 8 5 9 0 0 -23 -11 -29 -36 -36 -54 -15 -5 4 -2 5 6 0 10 -5 12 -4 7 4 -4 6
-13 8 -19 4 -19 -12 -49 -14 -42 -3 3 5 1 10 -4 10 -6 0 -11 -6 -11 -12 0 -9
-3 -9 -8 -2 -9 13 -44 28 -57 24 -5 -1 -48 -5 -95 -7 -47 -3 -90 -9 -95 -14
-6 -4 -32 -10 -57 -12 -25 -3 -51 -8 -57 -11 -6 -4 -19 -9 -29 -11 -20 -3
-134 -69 -154 -88 -28 -27 -89 -59 -104 -53 -8 3 -13 2 -10 -3 3 -4 -5 -14
-18 -21 -13 -7 -34 -32 -47 -57 -23 -46 -48 -72 -35 -37 5 14 4 16 -4 8 -6 -6
-12 -18 -14 -27 -1 -9 -26 -35 -56 -59 -30 -24 -62 -51 -72 -60 -9 -9 -34 -21
-55 -27 -97 -27 -175 0 -223 77 -42 67 -44 63 46 127 86 62 140 109 146 126 4
11 12 17 18 14 6 -4 9 -1 8 7 -2 8 4 12 16 10 14 -3 17 1 12 13 -4 11 -2 15 6
13 15 -5 49 22 42 34 -3 4 5 9 18 10 42 2 47 3 54 10 4 4 12 4 18 1 22 -14 36
-11 36 9 0 17 3 18 15 8 8 -7 15 -11 16 -9 7 31 4 46 -9 42 -12 -5 -12 -3 -1
16 15 22 44 37 68 32 7 -1 10 2 6 8 -3 6 -3 12 2 12 4 1 17 3 28 5 11 2 34 5
51 7 17 2 37 7 44 12 8 5 11 4 7 -2 -7 -11 46 5 73 22 8 5 22 10 30 10 45 4
50 6 50 25 0 11 6 20 14 20 8 0 27 5 43 12 15 6 31 11 36 10 4 -1 7 3 7 9 0 7
7 8 18 3 9 -4 33 -8 52 -8z m-1995 -172 c-19 -35 -84 -74 -124 -74 -25 0 -86
29 -78 37 3 2 14 0 25 -6 66 -35 179 17 182 84 1 14 3 15 7 6 3 -8 -2 -29 -12
-47z m-218 -41 c-9 -9 -30 12 -33 33 -2 14 1 13 19 -4 11 -12 18 -25 14 -29z
m-77 33 c0 -2 -8 -10 -17 -17 -16 -13 -17 -12 -4 4 13 16 21 21 21 13z m30
-25 c0 -5 -7 -12 -16 -15 -14 -5 -15 -4 -4 9 14 17 20 19 20 6z m-167 -132
c14 -29 13 -33 -4 -50 -47 -47 -120 6 -83 60 24 33 68 28 87 -10z m432 -71
c-3 -9 -17 -20 -31 -27 -30 -13 -34 -14 -34 -2 0 5 11 12 25 15 14 4 28 13 32
22 3 8 7 13 9 11 3 -2 2 -11 -1 -19z m-16 -74 c-7 -9 -22 -20 -34 -24 -47 -18
-65 -21 -65 -12 0 5 15 13 33 16 19 3 42 13 53 21 25 19 29 19 13 -1z m-191
-11 c-8 -10 0 -13 36 -13 26 0 46 -5 46 -11 0 -7 -33 -10 -97 -8 -115 3 -145
8 -137 20 3 5 10 7 15 4 5 -3 7 0 4 7 -4 10 12 13 69 13 58 0 72 -3 64 -12z"/>
<path d="M2981 2254 c0 -11 3 -14 6 -6 3 7 2 16 -1 19 -3 4 -6 -2 -5 -13z"/>
<path d="M600 3100 c0 -5 7 -7 15 -4 8 4 15 8 15 10 0 2 -7 4 -15 4 -8 0 -15
-4 -15 -10z"/>
<path d="M760 1671 c0 -12 39 -21 46 -10 3 5 10 6 16 3 7 -4 8 -2 4 4 -8 14
-66 16 -66 3z"/>
<path d="M579 1583 c-13 -16 -12 -17 4 -4 9 7 17 15 17 17 0 8 -8 3 -21 -13z"/>
<path d="M483 1400 c0 -36 2 -50 4 -32 2 17 2 47 0 65 -2 17 -4 3 -4 -33z"/>
<path d="M612 1381 c-10 -6 -10 -10 2 -20 16 -13 29 -2 18 16 -4 7 -13 8 -20
4z"/>
<path d="M3087 674 c-30 -39 -121 -94 -160 -96 -26 -1 -34 -5 -27 -12 11 -14
-47 -214 -80 -277 -11 -19 5 -29 48 -29 40 0 111 -30 117 -50 5 -17 50 -50
108 -79 15 -8 27 -18 27 -22 0 -4 14 -10 30 -14 17 -4 30 -11 30 -16 0 -5 12
-12 28 -15 15 -4 33 -16 40 -26 7 -10 19 -18 27 -18 7 0 15 -6 18 -12 3 -9 10
-7 21 7 8 11 16 15 16 8 0 -22 16 -14 28 13 7 14 16 22 22 19 5 -3 12 6 16 20
6 24 34 36 34 15 0 -21 30 -9 31 13 1 22 1 22 8 -2 6 -22 7 -21 19 12 7 19 12
39 11 44 -1 4 3 21 9 36 7 16 12 35 12 43 0 32 23 103 31 98 5 -3 6 3 2 12 -5
13 -3 15 8 9 8 -4 11 -4 6 0 -4 5 0 19 8 32 15 22 14 24 -23 47 -21 13 -53 41
-71 62 -18 22 -50 58 -72 81 -54 57 -52 66 15 77 48 8 42 16 -8 10 -37 -5 -51
-2 -68 12 -17 16 -37 19 -133 19 -101 0 -113 -2 -128 -21z m63 -372 c0 -4 -16
-6 -35 -4 -19 2 -35 6 -35 8 0 2 16 4 35 4 19 0 35 -4 35 -8z"/>
<path d="M2623 633 c0 -10 -4 -28 -7 -40 -3 -13 -9 -33 -12 -45 -12 -45 -14
-99 -4 -93 5 3 10 15 10 26 0 11 4 28 9 37 5 9 11 38 14 65 3 26 9 52 12 57 3
6 0 10 -7 10 -8 0 -14 -8 -15 -17z"/>
<path d="M1893 274 c3 -3 22 -6 42 -6 20 0 39 3 42 6 4 3 -15 6 -42 6 -27 0
-46 -3 -42 -6z"/>
<path d="M2712 168 c-11 -11 -17 -88 -7 -88 11 0 44 34 39 42 -3 4 -7 18 -9
29 -6 29 -9 31 -23 17z"/>
<path d="M2710 59 c0 -5 -4 -8 -9 -5 -5 4 -8 -2 -6 -11 1 -10 -2 -24 -8 -31
-5 -6 -5 -12 0 -12 5 0 16 16 25 35 8 19 12 35 7 35 -5 0 -9 -5 -9 -11z"/>
</g>
</svg>
